HIERARCHY
ROOT joint_Root
{
	OFFSET 0.0 0.0 0.0
	CHANNELS 6 Xposition Yposition Zposition Zrotation Xrotation Yrotation 
	JOINT Hips
	{
		OFFSET 4.5925 91.4895 -427.239
		CHANNELS 6 Xposition Yposition Zposition Zrotation Xrotation Yrotation 
		JOINT Spine
		{
			OFFSET 15.7357 0.0 0.0
			CHANNELS 6 Xposition Yposition Zposition Zrotation Xrotation Yrotation 
			JOINT Chest
			{
				OFFSET 8.98455 -0.406207 0.0
				CHANNELS 6 Xposition Yposition Zposition Zrotation Xrotation Yrotation 
				JOINT Neck
				{
					OFFSET 16.3773 0.0 0.0
					CHANNELS 6 Xposition Yposition Zposition Zrotation Xrotation Yrotation 
					JOINT Head
					{
						OFFSET 6.45672 0.0 0.0
						CHANNELS 6 Xposition Yposition Zposition Zrotation Xrotation Yrotation 
						End Site
						{
							OFFSET 0.0 0.0 0.0
						}
					}
				}
				JOINT Shoulder_L
				{
					OFFSET 12.9942 -0.242716 4.98039
					CHANNELS 6 Xposition Yposition Zposition Zrotation Xrotation Yrotation 
					JOINT UpperArm_L
					{
						OFFSET 5.34809 0.0 0.0
						CHANNELS 6 Xposition Yposition Zposition Zrotation Xrotation Yrotation 
						JOINT LowerArm_L
						{
							OFFSET 24.3286 1.87007e-05 0.0
							CHANNELS 6 Xposition Yposition Zposition Zrotation Xrotation Yrotation 
							JOINT Hand_L
							{
								OFFSET 22.2916 0.0 0.0
								CHANNELS 6 Xposition Yposition Zposition Zrotation Xrotation Yrotation 
								End Site
								{
									OFFSET 0.0 0.0 0.0
								}
							}
						}
					}
				}
				JOINT Shoulder_R
				{
					OFFSET 12.9945 -0.242716 -4.98039
					CHANNELS 6 Xposition Yposition Zposition Zrotation Xrotation Yrotation 
					JOINT UpperArm_R
					{
						OFFSET -5.34813 0.0 0.0
						CHANNELS 6 Xposition Yposition Zposition Zrotation Xrotation Yrotation 
						JOINT LowerArm_R
						{
							OFFSET -24.3289 0.000322201 0.0
							CHANNELS 6 Xposition Yposition Zposition Zrotation Xrotation Yrotation 
							JOINT Hand_R
							{
								OFFSET -22.2915 -0.000108084 0.0
								CHANNELS 6 Xposition Yposition Zposition Zrotation Xrotation Yrotation 
								End Site
								{
									OFFSET 0.0 0.0 0.0
								}
							}
						}
					}
				}
			}
		}
		JOINT UpperLeg_L
		{
			OFFSET -2.19248 -6.46944 0.0
			CHANNELS 6 Xposition Yposition Zposition Zrotation Xrotation Yrotation 
			JOINT LowerLeg_L
			{
				OFFSET 39.0811 0.0 -1.23785e-05
				CHANNELS 6 Xposition Yposition Zposition Zrotation Xrotation Yrotation 
				JOINT Foot_L
				{
					OFFSET 40.9854 0.0 -1.26872e-05
					CHANNELS 6 Xposition Yposition Zposition Zrotation Xrotation Yrotation 
					JOINT Toes_L
					{
						OFFSET 11.7543 0.0 0.0
						CHANNELS 6 Xposition Yposition Zposition Zrotation Xrotation Yrotation 
						End Site
						{
							OFFSET 0.0 0.0 0.0
						}
					}
				}
			}
		}
		JOINT UpperLeg_R
		{
			OFFSET -2.19251 6.46944 0.0
			CHANNELS 6 Xposition Yposition Zposition Zrotation Xrotation Yrotation 
			JOINT LowerLeg_R
			{
				OFFSET -39.0811 -0.00228153 -0.0401928
				CHANNELS 6 Xposition Yposition Zposition Zrotation Xrotation Yrotation 
				JOINT Foot_R
				{
					OFFSET -40.9854 0.0 0.0
					CHANNELS 6 Xposition Yposition Zposition Zrotation Xrotation Yrotation 
					JOINT Toes_R
					{
						OFFSET -11.7543 0.0 0.0
						CHANNELS 6 Xposition Yposition Zposition Zrotation Xrotation Yrotation 
						End Site
						{
							OFFSET 0.0 0.0 0.0
						}
					}
				}
			}
		}
	}
}
MOTION
Frames:	4
Frame Time:	0.0333333
0.000000 0.000000 0.000000 0.000000 0.000000 -0.000000 -0.535924 90.883900 1.107470 89.381700 -4.617190 11.048100 15.735700 0.000005 -0.000001 86.548900 82.344900 -86.479400 8.984550 -0.406207 -0.000000 7.517680 -0.918217 0.199172 16.377300 -0.000001 -0.000001 0.029286 -2.582150 1.568070 6.456720 -0.000001 -0.000000 -16.207600 -1.433000 0.386245 12.994200 -0.242716 4.980390 -91.821700 7.011610 -75.396100 5.348090 -0.000007 -0.000001 -60.963000 36.857000 -14.941900 24.328600 0.000019 0.000005 7.136130 23.894700 -17.175700 22.291600 -0.000001 0.000005 8.273200 5.282960 0.543836 12.994500 -0.242716 -4.980390 88.450200 11.880300 -82.512800 -5.348130 -0.000001 -0.000004 -63.170400 36.704400 -9.022620 -24.328900 0.000322 -0.000009 1.095630 3.750450 -16.312500 -22.291500 -0.000108 -0.000004 12.054000 5.391220 -2.654520 -2.192480 -6.469440 -0.000000 -174.313000 -12.165800 2.569120 39.081100 -0.000007 -0.000012 -0.138554 0.243254 29.665500 40.985400 -0.000006 -0.000013 -0.130268 4.217600 -70.834900 11.754300 -0.000000 0.000003 -0.000073 -0.000784 -16.607800 -2.192510 6.469440 -0.000001 174.009000 17.459300 -176.633000 -39.081100 -0.002282 -0.040193 -0.167729 0.309814 28.901100 -40.985400 0.000008 0.000006 2.348790 12.026800 -70.736700 -11.754300 -0.000006 -0.000006 -0.002957 -0.040120 -18.204700
0.000000 0.000000 0.000000 0.000000 0.000000 -0.000000 -0.516785 90.869300 1.121840 89.406900 -4.426370 11.242200 15.735700 0.000005 -0.000001 85.826100 82.248300 -85.733300 8.984550 -0.406207 -0.000000 7.698360 -1.123930 0.261142 16.377300 -0.000001 -0.000001 0.099007 -2.636900 1.590750 6.456720 -0.000001 -0.000000 -16.261800 -1.237090 0.538391 12.994200 -0.242716 4.980390 -91.852600 7.296280 -75.711500 5.348090 -0.000007 -0.000001 -59.153200 35.929600 -16.243700 24.328600 0.000019 0.000005 6.860200 24.745700 -16.035500 22.291600 -0.000001 0.000005 6.705220 5.282220 0.567084 12.994500 -0.242716 -4.980390 88.434100 11.800900 -82.386400 -5.348130 -0.000001 -0.000004 -62.872700 35.919300 -9.035900 -24.328900 0.000322 -0.000009 1.102000 3.854870 -15.981500 -22.291500 -0.000108 -0.000004 12.225500 5.386530 -2.505380 -2.192480 -6.469440 -0.000000 -174.340000 -11.988400 2.716620 39.081100 -0.000007 -0.000012 -0.140327 0.245764 29.725900 40.985400 -0.000006 -0.000013 -0.109843 4.242960 -70.866600 11.754300 -0.000000 0.000003 -0.000066 -0.000720 -16.605400 -2.192510 6.469440 -0.000001 173.888000 17.523400 -176.420000 -39.081100 -0.002282 -0.040193 -0.167226 0.308104 28.964000 -40.985400 0.000008 0.000006 2.317660 11.950100 -70.793000 -11.754300 -0.000006 -0.000006 -0.002849 -0.038885 -18.154400
0.000000 0.000000 0.000000 0.000000 0.000000 -0.000000 -0.503515 90.847800 1.112370 89.464500 -4.087270 11.459400 15.735700 0.000005 -0.000001 84.848500 82.129500 -84.755000 8.984550 -0.406207 -0.000000 7.914360 -1.407320 0.284148 16.377300 -0.000001 -0.000001 0.137621 -2.737530 1.616750 6.456720 -0.000001 -0.000000 -16.236100 -1.120700 0.719064 12.994200 -0.242716 4.980390 -91.871300 7.548210 -76.033100 5.348090 -0.000007 -0.000001 -56.779300 34.661700 -18.233000 24.328600 0.000019 0.000005 6.983660 27.000500 -15.100300 22.291600 -0.000001 0.000005 4.743500 5.280000 0.625851 12.994500 -0.242716 -4.980390 88.426700 11.675700 -82.271000 -5.348130 -0.000001 -0.000004 -62.532300 35.417800 -9.192020 -24.328900 0.000322 -0.000009 1.066150 3.770610 -15.815700 -22.291500 -0.000108 -0.000004 12.216200 5.385690 -2.477910 -2.192480 -6.469440 -0.000000 -174.422000 -11.734400 2.807270 39.081100 -0.000007 -0.000012 -0.138155 0.240869 29.837400 40.985400 -0.000006 -0.000013 -0.063572 4.327270 -70.883500 11.754300 -0.000000 0.000003 -0.000078 -0.000832 -16.609600 -2.192510 6.469440 -0.000001 173.698000 17.685900 -176.204000 -39.081100 -0.002282 -0.040193 -0.173542 0.317925 29.085200 -40.985400 0.000008 0.000006 2.271710 11.818100 -70.871700 -11.754300 -0.000006 -0.000006 -0.002973 -0.040293 -18.211800
0.000000 0.000000 0.000000 0.000000 0.000000 -0.000000 -0.516134 90.828500 1.114140 89.532300 -3.738160 11.730400 15.735700 0.000005 -0.000001 84.017700 82.013900 -83.936800 8.984550 -0.406207 -0.000000 8.122900 -1.657080 0.279261 16.377300 -0.000001 -0.000001 0.284095 -2.866350 1.591810 6.456720 -0.000001 -0.000000 -16.191600 -1.156540 0.920589 12.994200 -0.242716 4.980390 -91.858500 7.603820 -76.222100 5.348090 -0.000007 -0.000001 -54.422600 32.702800 -20.655200 24.328600 0.000019 0.000005 6.976740 28.998900 -14.167100 22.291600 -0.000001 0.000005 3.367120 5.271730 0.852262 12.994500 -0.242716 -4.980390 88.414800 11.584700 -82.153800 -5.348130 -0.000001 -0.000004 -62.149200 35.200200 -9.326410 -24.328900 0.000322 -0.000009 1.034450 3.647190 -15.862000 -22.291500 -0.000108 -0.000004 12.239500 5.384980 -2.455510 -2.192480 -6.469440 -0.000000 -174.417000 -11.657100 3.016950 39.081100 -0.000007 -0.000012 -0.139708 0.242938 29.902400 40.985400 -0.000006 -0.000013 0.001072 4.578900 -70.899800 11.754300 -0.000000 0.000003 -0.000075 -0.000804 -16.608600 -2.192510 6.469440 -0.000001 173.521000 17.821200 -175.926000 -39.081100 -0.002282 -0.040193 -0.173524 0.316414 29.198900 -40.985400 0.000008 0.000006 2.243970 11.644100 -70.959400 -11.754300 -0.000006 -0.000006 -0.002832 -0.038692 -18.146600
